<svg version="1.2" xmlns="http://www.w3.org/2000/svg" viewBox="0 0 124 125" width="124" height="125">
	<style>
		.s0 { fill: none;stroke: #231f20;stroke-linecap: round;stroke-linejoin: round;stroke-width: 3.2 } 
	</style>
	<g id="clock">
		<path fill-rule="evenodd" class="s0" d="m120.61 72.06c-5.28 32.55-35.86 54.59-68.4 49.3-32.55-5.28-54.59-35.85-49.31-68.4 5.28-32.55 35.86-54.59 68.41-49.31 32.55 5.28 54.59 35.86 49.3 68.41z"/>
		<path class="s0" d="m61.77 111.72c-27.13 0-49.2-22.07-49.2-49.2 0-27.13 22.07-49.2 49.2-49.2 27.13 0 49.2 22.07 49.2 49.2 0 27.13-22.07 49.2-49.2 49.2z"/>
		<path fill-rule="evenodd" class="s0" d="m61.77 28.96v28.67"/>
		<path fill-rule="evenodd" class="s0" d="m61.77 13.32v9.77"/>
		<path fill-rule="evenodd" class="s0" d="m12.57 62.52h9.77"/>
		<path fill-rule="evenodd" class="s0" d="m61.77 111.72v-9.78"/>
		<path fill-rule="evenodd" class="s0" d="m110.97 62.52h-9.78"/>
		<path fill-rule="evenodd" class="s0" d="m28.71 29.46l3.45 3.45"/>
		<path fill-rule="evenodd" class="s0" d="m28.71 95.58l3.45-3.46"/>
		<path fill-rule="evenodd" class="s0" d="m94.83 95.58l-3.46-3.46"/>
		<path fill-rule="evenodd" class="s0" d="m94.83 29.46l-3.46 3.45"/>
		<path fill-rule="evenodd" class="s0" d="m83.6 83.7l-18.32-17.78"/>
		<path fill-rule="evenodd" class="s0" d="m61.77 67.4c-2.7 0-4.89-2.18-4.89-4.88 0-2.7 2.19-4.89 4.89-4.89 2.7 0 4.89 2.19 4.89 4.89 0 2.7-2.19 4.88-4.89 4.88z"/>
	</g>
</svg>