<svg version="1.2" xmlns="http://www.w3.org/2000/svg" viewBox="0 0 125 123" width="125" height="123">
	<style>
		.s0 { fill: none;stroke: #231f20;stroke-linecap: round;stroke-linejoin: round;stroke-width: 3.3 } 
	</style>
	<g id="euro">
		<path class="s0" d="m21.51 74.6h-18.64l5.77-9.76h11.42q-0.12-1.87-0.12-3.76 0-2.24 0.17-4.44h-17.24l5.77-9.75h13.03c6.35-25.47 29.37-44.35 56.8-44.35 17.35 0 32.94 7.55 43.65 19.54l-15.4 15.4c-6.75-8.07-16.9-13.21-28.25-13.21-15.29 0-28.41 9.33-33.96 22.62h68.33l-5.77 9.75h-65.13q-0.27 2.18-0.27 4.43 0 1.91 0.19 3.77h61.45l-5.77 9.76h-53.3c5.39 13.63 18.68 23.28 34.24 23.28 13.72 0 29.53-6.81 38.35-17.48v26.81c-10.04 8.31-23.4 13.06-38.35 13.06-27.69 0-50.88-19.71-56.97-45.67z"/>
	</g>
</svg>