<svg version="1.2" xmlns="http://www.w3.org/2000/svg" viewBox="0 0 124 125" width="124" height="125">
	<style>
		.s0 { fill: none;stroke: #231f20;stroke-linecap: round;stroke-linejoin: round;stroke-width: 3.3 } 
	</style>
	<g id="info">
		<path fill-rule="evenodd" class="s0" d="m61.89 97.66c-2.7 0-4.89-2.19-4.89-4.89 0-2.71 2.19-4.89 4.89-4.89 2.71 0 4.89 2.18 4.89 4.89 0 2.7-2.18 4.89-4.89 4.89z"/>
		<path fill-rule="evenodd" class="s0" d="m80.91 110.51c-26.54 10.6-56.56-2.28-67.16-28.82-10.6-26.54 2.29-56.56 28.82-67.16 26.54-10.6 56.56 2.29 67.16 28.82 10.6 26.54-2.28 56.56-28.82 67.16z"/>
		<path fill-rule="evenodd" class="s0" d="m119.69 76.57c-7.78 32.04-39.96 51.66-72 43.89-32.05-7.77-51.67-39.96-43.89-72 7.77-32.05 39.96-51.67 72-43.89 32.04 7.77 51.66 39.96 43.89 72z"/>
		<path class="s0" d="m65.85 30.45v41.4c0 2.38-1.92 4.45-4.3 4.45-2.37 0-4.29-1.78-4.29-4.15v-42c0-2.38 1.92-4.15 4.29-4.15 2.38 0 4.3 2.07 4.3 4.45z"/>
	</g>
</svg>