<svg version="1.2" xmlns="http://www.w3.org/2000/svg" viewBox="0 0 124 124" width="124" height="124">
	<style>
		.s0 { fill: none;stroke: #231f20;stroke-linecap: round;stroke-linejoin: round;stroke-width: 3.3 } 
	</style>
	<g id="link">
		<path fill-rule="evenodd" class="s0" d="m64.63 40.33l0.74-0.74 17.96-17.96c8.68-8.68 22.74-8.68 31.42 0 8.68 8.68 8.68 22.75 0 31.42l-23.94 23.94c-8.68 8.68-22.74 8.68-31.42 0-5.67-5.66-7.64-13.63-5.9-20.9"/>
		<path fill-rule="evenodd" class="s0" d="m60.94 58.46c-0.64-1.91-1.72-3.7-3.23-5.22-5.26-5.26-13.82-5.26-19.08 0l-23.94 23.94c-5.26 5.26-5.26 13.82 0 19.08 5.26 5.26 13.82 5.26 19.08 0l18.98-18.99"/>
		<path fill-rule="evenodd" class="s0" d="m70.8 46.51l0.75-0.75 17.95-17.96c5.26-5.26 13.82-5.26 19.08 0 5.26 5.26 5.26 13.82 0 19.08l-23.94 23.94c-5.26 5.26-13.82 5.26-19.08 0-1.52-1.52-2.6-3.31-3.24-5.22"/>
		<path fill-rule="evenodd" class="s0" d="m69.79 67.91c1.71-7.25-0.26-15.19-5.91-20.84-8.68-8.68-22.75-8.68-31.42 0l-23.94 23.94c-8.68 8.68-8.68 22.74 0 31.42 8.67 8.68 22.74 8.68 31.42 0l18.42-18.42"/>
	</g>
</svg>