<svg version="1.2" xmlns="http://www.w3.org/2000/svg" viewBox="0 0 124 124" width="124" height="124">
	<style>
		.s0 { fill: none;stroke: #231f20;stroke-linecap: round;stroke-linejoin: round;stroke-width: 3.3 } 
	</style>
	<g id="location">
		<path class="s0" d="m62.5 2.4c20.03 0 36.27 16.24 36.27 36.28 0 38.86-36.27 72.45-36.27 72.45 0 0-36.27-33.59-36.27-72.45 0-20.04 16.24-36.28 36.27-36.28z"/>
		<path fill-rule="evenodd" class="s0" d="m79.9 53.06c-9.62 9.62-25.18 9.62-34.8 0-9.63-9.63-9.63-25.19 0-34.81 9.62-9.63 25.18-9.63 34.8 0 9.63 9.62 9.63 25.18 0 34.81z"/>
		<path fill-rule="evenodd" class="s0" d="m77.38 101.98c10.48 1.73 17.65 5.23 17.65 9.26 0 5.75-14.56 10.42-32.53 10.42-17.97 0-32.53-4.66-32.53-10.42 0-3.98 6.98-7.43 17.23-9.19"/>
	</g>
</svg>