<svg version="1.2" xmlns="http://www.w3.org/2000/svg" viewBox="0 0 1016 650" width="1016" height="650">
	<style>
		.s0 { fill: #8b3333;stroke: #000000;stroke-miterlimit:10;stroke-width: 3.5 } 
		.s1 { fill: #ffffff } 
		.s2 { fill: #f2ee9c } 
		.s3 { fill: #8b3333 } 
		.s4 { fill: #f2ee9c;stroke: #f2ee9c;stroke-miterlimit:10;stroke-width: 3.5 } 
		.s5 { fill: none } 
	</style>
	<path fill-rule="evenodd" class="s0" d="m1471.53-701.26v1994.79h-1994.79v-1994.79z"/>
	<path class="s1" d="m394.36 28.7h110.88v169.31l199.86-169.31h85.66l-225.42 190.56 285.51 259.62-133.79-0.01-211.81-192.88v192.88h-110.89c0 0 0-450.17 0-450.17z"/>
	<path class="s2" d="m401.87 59.68l194.02 422.21h-103.72l-51.86-112.87h-160.78l-54.3 112.87h-68.94l201.64-422.21c0 0 43.93 0 43.94 0zm-103.12 270.9h124.47l-61.32-133.62z"/>
	<path fill-rule="evenodd" class="s2" d="m550.17 481.91h-250.92l45.38-37.16h205.54v37.16z"/>
	<path class="s3" d="m474.64 444.02q-65.34 0.32-130.67 0.64 9.49-38.89 18.98-77.77 38.68 1.06 77.36 2.12 17.16 37.51 34.33 75.01z"/>
	<path class="s4" d="m359.3 60.73q8.96-24.9 17.91-49.8 11.65 25.01 23.29 50.02"/>
	<path fill-rule="evenodd" class="s5" d="m1178.91 551.14v261.71h-1331.52v-261.71z"/>
	<path class="s1" d="m48.7 562.74l38.09 82.76h-13.85l-12.33-26.98h-34.73l-12.76 26.98h-6.84l39-82.76c0 0 3.42 0 3.42 0zm-20.44 50.53h29.85l-14.71-32.04c0 0-15.14 32.04-15.14 32.04z"/>
	<path class="s1" d="m116.88 642.51q2.5 0 4.64-0.76 2.14-0.77 3.69-2.05 1.56-1.28 2.41-2.96 0.86-1.68 0.86-3.45-0.01-2.87-1.44-5-1.43-2.14-3.78-3.82-2.35-1.68-5.34-3.08-2.99-1.41-6.11-2.9-3.11-1.5-6.1-3.17-2.99-1.68-5.34-3.94-2.35-2.26-3.79-5.22-1.43-2.96-1.43-6.93 0-3.72 1.59-6.92 1.58-3.21 4.42-5.53 2.84-2.32 6.74-3.63 3.91-1.31 8.55-1.31 3.11 0 5.8 0.42 2.68 0.43 5.28 1.65 2.59 1.22 5.15 3.51 2.57 2.29 5.43 5.96l-4.57 4.09q-3.54-5.8-7.9-8.64-4.37-2.84-9.31-2.84-2.69 0-4.89 0.65-2.19 0.64-3.75 1.77-1.56 1.13-2.44 2.65-0.89 1.53-0.89 3.24 0 2.81 1.56 4.88 1.56 2.08 4.12 3.75 2.57 1.68 5.83 3.09 3.27 1.4 6.65 2.87 3.39 1.46 6.66 3.17 3.26 1.71 5.83 3.94 2.56 2.23 4.12 5.15 1.55 2.93 1.55 6.84 0 3.97-1.46 7.42-1.47 3.44-4.42 5.98-2.96 2.53-7.42 4-4.46 1.46-10.5 1.46-2.74 0-5.64-0.43-2.9-0.42-5.83-1.67-2.93-1.25-5.86-3.51-2.94-2.26-5.74-5.92l5.06-4.58q2.27 3.17 4.34 5.4 2.07 2.23 4.24 3.67 2.17 1.43 4.46 2.07 2.28 0.65 4.97 0.63z"/>
	<path class="s1" d="m171.39 561.76h3.54v21.24h13.91v5.31h-13.91v44.01q0 1.4 0.51 2.62 0.52 1.22 1.41 2.14 0.88 0.91 2.1 1.43 1.22 0.52 2.69 0.52 2.07 0 3.78-1.04 1.71-1.04 2.99-2.56l3.11 2.07q-2.56 4.34-6.65 6.84-4.09 2.5-10.13 2.5-3.12 0-5.43-1.07-2.32-1.06-3.82-2.99-1.5-1.92-2.23-4.57-0.73-2.65-0.73-5.89v-44.01h-10.87v-2.32l10.87-2.99v-17.76c0 0 8.85-3.48 8.86-3.48z"/>
	<path class="s1" d="m216.74 581.84h1.89l1.65 12.76q1.46-2.81 3.66-5.13 2.2-2.32 4.85-4.03 2.66-1.7 5.62-2.65 2.96-0.95 6.01-0.95 2.74 0 5.4 0.74 2.65 0.73 4.98 2.32l-3.91 10.43q-1.22-1.34-2.56-2.16-1.35-0.83-2.75-1.28-1.41-0.46-2.87-0.58-1.46-0.13-2.93-0.13-2.32 0-4.55 0.67-2.23 0.68-4.24 1.99-2.02 1.31-3.72 3.35-1.71 2.05-2.99 4.8v43.51h-12.39v-60.24c0 0 8.85-3.42 8.85-3.42z"/>
	<path class="s1" d="m261.9 559.08q0-1.47 0.55-2.75 0.55-1.28 1.53-2.26 0.97-0.97 2.25-1.52 1.28-0.55 2.75-0.55 1.46 0 2.75 0.55 1.28 0.55 2.25 1.52 0.98 0.98 1.53 2.26 0.54 1.28 0.55 2.75-0.01 1.46-0.55 2.74-0.55 1.29-1.53 2.26-0.97 0.98-2.25 1.52-1.29 0.55-2.75 0.55-1.47 0-2.75-0.55-1.28-0.54-2.25-1.52-0.98-0.97-1.53-2.26-0.55-1.28-0.55-2.74zm0.98 26.3l8.73-3.54h3.6v63.66h-12.33z"/>
	<path class="s1" d="m340.88 639.46q-2.13 1.71-4.64 3.08-2.5 1.37-5.22 2.32-2.71 0.95-5.46 1.47-2.74 0.52-5.37 0.51-5.49 0-10.28-2.56-4.8-2.56-8.36-6.89-3.58-4.34-5.65-10.11-2.08-5.76-2.08-12.17 0-6.35 2.6-12.33 2.59-5.99 7.05-10.65 4.45-4.67 10.4-7.48 5.95-2.81 12.73-2.81 4.58 0 7.96 1.59 3.39 1.59 6.32 4.21v-32.96l8.73-3.54h3.6v94.36h-12.33c0 0 0-6.04 0-6.04zm0-36.56q0-3.66-1.37-6.68-1.38-3.03-3.57-5.19-2.2-2.17-4.98-3.36-2.78-1.19-5.58-1.19-3.73 0-6.96 1.83-3.23 1.83-5.65 5.16-2.41 3.32-3.81 7.93-1.41 4.61-1.4 10.16-0.01 5.98 1.52 11.17 1.53 5.19 4.18 9.07 2.65 3.87 6.23 6.1 3.57 2.23 7.66 2.23 1.95 0 3.93-0.52 1.99-0.52 3.76-1.4 1.77-0.89 3.32-2.05 1.56-1.16 2.72-2.44c0 0 0-30.82 0-30.82z"/>
	<path class="s1" d="m400.69 564.57h13.62v35.89l42.6-35.89h8.85l-40.41 34.06 51.27 46.87h-17.33l-44.98-41.07v41.07h-13.62z"/>
	<path class="s1" d="m526.67 645.5q-2.44-1.22-4.12-3.44-1.68-2.23-1.68-5.1-2.2 1.65-4.3 3.41-2.11 1.77-4.58 3.21-2.47 1.44-5.49 2.35-3.02 0.92-6.99 0.92-3.66 0-6.62-1.19-2.96-1.2-5-3.27-2.05-2.07-3.18-4.94-1.13-2.87-1.13-6.17 0-4.02 1.59-7.26 1.59-3.23 4.36-5.77 2.78-2.53 6.44-4.51 3.66-1.99 7.81-3.55 4.15-1.55 8.55-2.77 4.39-1.23 8.55-2.26v-3.91q-0.01-4.27-0.62-7.2-0.61-2.93-1.89-4.73-1.28-1.8-3.26-2.56-1.98-0.76-4.73-0.76-2.63 0-4.82 1.03-2.2 1.04-3.88 2.78-1.68 1.74-2.75 4.09-1.06 2.35-1.43 4.98h-11.35q0.48-4.03 2.77-7.2 2.29-3.18 5.77-5.34 3.48-2.17 7.9-3.33 4.43-1.16 9.19-1.16 6.1 0 10.25 1.19 4.16 1.19 6.66 3.33 2.5 2.13 3.57 5.22 1.07 3.08 1.07 6.8v38.58q0 2.86 1.67 5.09 1.68 2.23 4.13 3.45c0 0-12.46 0-12.46-0.01zm-5.8-36.38q-2.69 0.86-5.55 1.96-2.87 1.09-5.62 2.47-2.74 1.37-5.25 2.96-2.5 1.59-4.39 3.42-1.9 1.83-2.99 3.84-1.1 2.01-1.1 4.21 0 2.32 0.85 4.37 0.86 2.04 2.26 3.6 1.4 1.55 3.24 2.44 1.83 0.88 3.78 0.88 2.07 0 3.97-0.54 1.89-0.55 3.66-1.5 1.77-0.95 3.54-2.17 1.78-1.22 3.6-2.62c0 0 0-23.32 0-23.31z"/>
	<path class="s1" d="m579.83 646.84q-6.34 0-11.93-2.38-5.59-2.38-9.74-6.47-4.15-4.09-6.56-9.61-2.41-5.52-2.41-11.75 0-7.51 2.2-13.89 2.2-6.38 6.22-11.01 4.03-4.64 9.68-7.27 5.64-2.62 12.6-2.62 6.11 0 11.23 2.16 5.13 2.17 8.82 5.8 3.69 3.63 5.74 8.39 2.04 4.76 2.04 9.95h-46.57q0 6.29 1.62 11.66 1.62 5.37 4.55 9.28 2.93 3.9 6.96 6.1 4.03 2.2 8.85 2.2 4.03 0 7.75-1.31 3.72-1.32 6.74-3.45 3.02-2.14 5.16-4.88 2.13-2.75 2.99-5.68l3.6 1.59q-1.35 4.82-4.34 9.03-2.98 4.21-6.98 7.35-4 3.15-8.7 4.98-4.7 1.83-9.52 1.83zm12.33-43.7q0-3.54-1.25-6.59-1.25-3.05-3.45-5.28-2.2-2.23-5.13-3.51-2.93-1.28-6.28-1.28-2.81 0-5.38 1.25-2.56 1.25-4.57 3.48-2.01 2.23-3.33 5.28-1.31 3.05-1.55 6.59z"/>
	<path class="s1" d="m645.87 642.51q2.5 0 4.64-0.76 2.14-0.77 3.69-2.05 1.56-1.28 2.41-2.96 0.86-1.68 0.86-3.45-0.01-2.87-1.44-5-1.43-2.14-3.78-3.82-2.35-1.68-5.34-3.08-2.99-1.41-6.11-2.9-3.11-1.5-6.1-3.17-2.99-1.68-5.34-3.94-2.35-2.26-3.79-5.22-1.43-2.96-1.43-6.93 0-3.72 1.59-6.92 1.58-3.21 4.42-5.53 2.84-2.32 6.74-3.63 3.91-1.31 8.55-1.31 3.11 0 5.8 0.42 2.68 0.43 5.28 1.65 2.59 1.22 5.15 3.51 2.57 2.29 5.43 5.96l-4.57 4.09q-3.54-5.8-7.9-8.64-4.37-2.84-9.31-2.84-2.69 0-4.89 0.65-2.19 0.64-3.75 1.77-1.56 1.13-2.44 2.65-0.89 1.53-0.89 3.24 0 2.81 1.56 4.88 1.56 2.08 4.12 3.75 2.57 1.68 5.83 3.09 3.27 1.4 6.65 2.87 3.39 1.46 6.66 3.17 3.26 1.71 5.83 3.94 2.56 2.23 4.12 5.15 1.55 2.93 1.55 6.84 0 3.97-1.46 7.42-1.47 3.44-4.43 5.98-2.95 2.53-7.41 4-4.46 1.46-10.5 1.46-2.74 0-5.64-0.43-2.9-0.42-5.83-1.67-2.93-1.25-5.87-3.51-2.93-2.26-5.73-5.92l5.06-4.58q2.27 3.17 4.34 5.4 2.07 2.23 4.24 3.67 2.17 1.43 4.46 2.07 2.28 0.65 4.97 0.63z"/>
	<path class="s1" d="m690.49 583l19.77 45.66 19.6-45.66 19.71 45.66 17.46-45.66h5.98l-25.51 63.17h-4.22l-17.45-40.83-17.52 40.83h-3.84l-27.35-63.17c0 0 13.37 0 13.37 0z"/>
	<path class="s1" d="m797.3 583v44.5q0 2.31 1.07 4.39 1.06 2.08 2.96 3.6 1.89 1.53 4.36 2.41 2.48 0.89 5.34 0.89 1.84 0 3.94-0.8 2.11-0.79 4.12-2.16 2.02-1.38 3.76-3.24 1.74-1.86 2.96-3.94v-45.65h12.33v62.5h-12.33v-11.72q-1.65 2.69-4.12 5.07-2.47 2.38-5.34 4.15-2.87 1.77-5.92 2.81-3.06 1.04-5.8 1.03-4.09 0-7.69-1.52-3.6-1.53-6.29-4.15-2.69-2.63-4.24-6.16-1.56-3.54-1.56-7.51v-44.49c0 0 12.45 0 12.45-0.01z"/>
	<path class="s1" d="m868.95 581.84h1.9l1.65 12.76q1.46-2.81 3.66-5.13 2.2-2.32 4.85-4.03 2.65-1.7 5.62-2.65 2.96-0.95 6.01-0.95 2.74 0 5.4 0.74 2.65 0.73 4.97 2.32l-3.9 10.43q-1.22-1.34-2.56-2.16-1.35-0.83-2.75-1.28-1.41-0.46-2.87-0.58-1.46-0.13-2.93-0.13-2.32 0-4.55 0.67-2.23 0.68-4.24 1.99-2.02 1.31-3.72 3.35-1.71 2.05-2.99 4.8v43.51h-12.39v-60.24c0 0 8.85-3.42 8.84-3.42z"/>
	<path class="s1" d="m923.03 581.84h3.54v12.94q2.38-2.56 5.37-4.91 2.99-2.35 6.17-4.15 3.17-1.8 6.34-2.83 3.18-1.04 6.05-1.04 2.74 0 5.58 0.97 2.84 0.98 5.25 2.75 2.41 1.77 4.15 4.18 1.74 2.41 2.29 5.28 1.52-2.74 4.24-5.16 2.72-2.41 6.01-4.18 3.3-1.76 6.99-2.8 3.69-1.04 7.23-1.04 3.54 0 6.62 1.55 3.09 1.56 5.41 4.21 2.32 2.66 3.66 6.23 1.34 3.57 1.34 7.6v44.06h-12.38v-42.35q0-2.63-0.89-4.98-0.88-2.35-2.41-4.12-1.53-1.77-3.57-2.81-2.04-1.04-4.3-1.04-2.56 0-5.22 0.7-2.66 0.7-5.03 1.93-2.38 1.22-4.34 2.83-1.95 1.62-3.11 3.45v46.39h-12.39v-42.36q0-2.62-0.91-4.98-0.92-2.35-2.45-4.12-1.52-1.77-3.6-2.81-2.07-1.04-4.33-1.04-2.38 0-4.91 0.74-2.54 0.73-4.95 1.95-2.41 1.22-4.48 2.84-2.08 1.61-3.42 3.38v46.39h-12.45v-60.18c0 0 8.91-3.48 8.9-3.47z"/>
	<path fill-rule="evenodd" class="s1" d="m394.44 44l-17.46-37.59 128.03 22.11"/>
	<path class="s3" d="m474.64 444.02h-229.83q59.12-126.65 118.25-253.3 55.78 126.65 111.58 253.3z"/>
</svg>