<svg width="29" height="30" viewBox="0 0 29 30" fill="none" xmlns="http://www.w3.org/2000/svg">
<g clip-path="url(#clip0_2261_479)">
<path d="M14.5 30C6.49187 30 0 23.2843 0 15C0 6.71573 6.49187 0 14.5 0C22.5081 0 29 6.71573 29 15C29 23.2843 22.5081 30 14.5 30Z" fill="#F0F0F0"/>
<path d="M26.0026 5.86769C27.1416 7.40068 28.0004 9.16757 28.5005 11.087H20.9572L26.0026 5.86769Z" fill="#0052B4"/>
<path d="M0.499492 11.087C0.999572 9.16763 1.85847 7.40074 2.9974 5.86775L8.04266 11.087H0.499492Z" fill="#0052B4"/>
<path d="M28.5005 18.9131C28.0004 20.8325 27.1415 22.5994 26.0026 24.1324L20.9574 18.9131H28.5005Z" fill="#0052B4"/>
<path d="M5.67209 3.10084C7.15398 1.92258 8.86192 1.03412 10.7174 0.516739V8.32008L5.67209 3.10084Z" fill="#0052B4"/>
<path d="M23.3279 26.8992C21.846 28.0774 20.138 28.9659 18.2826 29.4833V21.68L23.3279 26.8992Z" fill="#0052B4"/>
<path d="M18.2826 0.516739C20.1381 1.03412 21.846 1.92258 23.3279 3.10078L18.2826 8.32002V0.516739Z" fill="#0052B4"/>
<path d="M10.7173 29.4833C8.86191 28.9659 7.15391 28.0774 5.67208 26.8992L10.7173 21.68V29.4833Z" fill="#0052B4"/>
<path d="M8.04266 18.9131L2.9974 24.1324C1.85847 22.5995 0.999572 20.8325 0.499492 18.9131H8.04266Z" fill="#0052B4"/>
<path d="M0.122742 13.0435H12.6086L12.6087 0.126973C13.2278 0.0435938 13.859 0 14.5 0C15.1411 0 15.7722 0.0435938 16.3913 0.126973V13.0434L28.8773 13.0434C28.9579 13.6839 29 14.3369 29 15C29 15.6632 28.9579 16.3161 28.8773 16.9565H16.3914L16.3913 29.873C15.7722 29.9564 15.1411 30 14.5 30C13.859 30 13.2278 29.9565 12.6087 29.873V16.9566L0.122742 16.9566C0.042141 16.3161 0 15.6632 0 15C0 14.3369 0.042141 13.6839 0.122742 13.0435Z" fill="#D80027"/>
<path d="M0.122742 13.0435H12.6086L12.6087 0.126973C13.2278 0.0435938 13.859 0 14.5 0C15.1411 0 15.7722 0.0435938 16.3913 0.126973V13.0434L28.8773 13.0434C28.9579 13.6839 29 14.3369 29 15C29 15.6632 28.9579 16.3161 28.8773 16.9565H16.3914L16.3913 29.873C15.7722 29.9564 15.1411 30 14.5 30C13.859 30 13.2278 29.9565 12.6087 29.873V16.9566L0.122742 16.9566C0.042141 16.3161 0 15.6632 0 15C0 14.3369 0.042141 13.6839 0.122742 13.0435Z" fill="#D80027"/>
<path d="M10.7173 18.9131L4.24695 25.6066C3.94936 25.2989 3.66547 24.9772 3.39462 24.6437L8.93418 18.9131H10.7173V18.9131Z" fill="#D80027"/>
<path d="M18.2827 18.9131H18.2828L24.7531 25.6066C24.4556 25.9144 24.1446 26.2081 23.8222 26.4883L18.2827 20.7576V18.9131Z" fill="#D80027"/>
<path d="M18.2826 11.087V11.0869L24.753 4.39336C25.0506 4.70109 25.3345 5.02283 25.6053 5.35634L20.0657 11.087H18.2826V11.087Z" fill="#D80027"/>
<path d="M10.7173 11.087L4.24689 4.39342C4.54437 4.08557 4.85538 3.79189 5.17778 3.51176L10.7173 9.2424V11.087Z" fill="#D80027"/>
</g>
<defs>
<clipPath id="clip0_2261_479">
<rect width="29" height="30" fill="white" transform="matrix(-1 0 0 1 29 0)"/>
</clipPath>
</defs>
</svg>
