<svg width="45" height="48" viewBox="0 0 45 48" fill="none" xmlns="http://www.w3.org/2000/svg">
<circle cx="22.5" cy="24.5" r="22" stroke="white"/>
<path d="M21.024 30.056L20.096 21.832V13.32H24.4V21.832L23.52 30.056H21.024ZM22.256 37.24C21.4453 37.24 20.7893 37.0107 20.288 36.552C19.7973 36.0933 19.552 35.4853 19.552 34.728C19.552 33.96 19.7973 33.3467 20.288 32.888C20.7787 32.4293 21.4347 32.2 22.256 32.2C23.0667 32.2 23.7173 32.4347 24.208 32.904C24.6987 33.3627 24.944 33.9707 24.944 34.728C24.944 35.4747 24.6933 36.0827 24.192 36.552C23.7013 37.0107 23.056 37.24 22.256 37.24Z" fill="white"/>
</svg>
