<svg version="1.2" xmlns="http://www.w3.org/2000/svg" viewBox="0 0 85 125" width="125" height="125">
	<style>
		.s0 { fill: none;stroke: #231f20;stroke-linecap: round;stroke-linejoin: round;stroke-width: 3.2 } 
	</style>
	<g id="Folder 1">
		<path class="s0" d="m69.13 57.17v-11.77c0-14.43-11.22-26.71-25.63-27.23-15.14-0.53-27.58 11.57-27.58 26.59v12.41c0 12.81-4.34 25.24-12.32 35.27-0.53 0.66-0.81 1.47-0.81 2.31v8.29c0 2.05 1.66 3.71 3.71 3.71h72.05c2.05 0 3.71-1.66 3.71-3.71v-8.29c0-0.84-0.28-1.65-0.81-2.31-7.98-10.03-12.32-22.46-12.32-35.27z"/>
		<path class="s0" d="m48.87 8.18c0 2.92-2.36 5.29-5.29 5.29-2.92 0-5.29-2.37-5.29-5.29 0-2.92 2.37-5.29 5.29-5.29 2.93 0 5.29 2.37 5.29 5.29z"/>
		<path fill-rule="evenodd" class="s0" d="m54.84 110.88c0 6.22-5.04 11.26-11.26 11.26-6.22 0-11.26-5.04-11.26-11.26"/>
		<path fill-rule="evenodd" class="s0" d="m9.27 92.44h66.51"/>
	</g>
</svg>