<svg version="1.2" xmlns="http://www.w3.org/2000/svg" viewBox="0 0 124 124" width="124" height="124">
	<style>
		.s0 { fill: none;stroke: #231f20;stroke-linecap: round;stroke-linejoin: round;stroke-width: 3.2 } 
	</style>
	<g id="check">
		<path class="s0" d="m90.87 20.75c-8.07-5.57-18.09-9.02-28.61-9.02-27.59 0-50.04 22.44-50.04 50.03 0 27.59 22.45 50.03 50.04 50.03 27.58 0 50.03-22.44 50.03-50.03h9.59c0 32.93-26.69 59.63-59.62 59.63-32.93 0-59.63-26.7-59.63-59.63 0-32.93 26.7-59.63 59.63-59.63 16.46 0 31.37 6.68 42.16 17.47l-42.16 65.01-22.87-35.21h12.51l10.36 16.01c0 0 16.25-25.61 28.61-44.66z"/>
	</g>
</svg>