<svg version="1.2" xmlns="http://www.w3.org/2000/svg" viewBox="0 0 127 125" width="127" height="125">
	<style>
		.s0 { fill: none;stroke: #231f20;stroke-linecap: round;stroke-linejoin: round;stroke-width: 3.3 } 
	</style>
	<g id="gear">
		<path class="s0" d="m83.52 77.94q0-2.45-0.32-4.82l6.48-4.43-2.87-8.82-7.82 0.21c-1.56-2.86-3.49-5.49-5.71-7.84l2.63-7.38-7.5-5.45-6.2 4.76c-2.89-1.38-5.99-2.39-9.23-2.99l-2.22-7.51h-9.27l-2.21 7.51c-3.25 0.6-6.35 1.61-9.24 2.99l-6.19-4.76-7.51 5.45 2.63 7.38c-2.22 2.35-4.15 4.98-5.71 7.84l-7.82-0.21-2.87 8.82 6.48 4.43q-0.31 2.37-0.32 4.82 0.01 2.47 0.32 4.86l-6.48 4.44 2.87 8.82 7.85-0.22c1.56 2.85 3.48 5.47 5.69 7.81l-2.64 7.42 7.51 5.45 6.23-4.8c2.88 1.37 5.96 2.38 9.18 2.98l2.23 7.55h9.27l2.23-7.55c3.23-0.6 6.31-1.61 9.19-2.98l6.23 4.8 7.5-5.45-2.64-7.42c2.21-2.34 4.14-4.96 5.69-7.81l7.85 0.22 2.87-8.82-6.48-4.44q0.31-2.39 0.32-4.86z"/>
		<path fill-rule="evenodd" class="s0" d="m67.24 99.06c-11.67 11.67-30.55 11.67-42.23 0-11.67-11.68-11.67-30.56 0-42.23 11.68-11.68 30.56-11.68 42.23 0 11.68 11.67 11.68 30.55 0 42.23z"/>
		<path fill-rule="evenodd" class="s0" d="m69.36 81.71c-2.09 12.85-14.16 21.56-27.02 19.47-12.86-2.08-21.56-14.16-19.48-27.02 2.09-12.86 14.17-21.56 27.02-19.48 12.86 2.09 21.57 14.17 19.48 27.03z"/>
		<path class="s0" d="m120.9 27.73q0-1.42-0.18-2.79l3.76-2.58-1.67-5.12-4.54 0.12q-1.37-2.5-3.32-4.55l1.53-4.29-4.36-3.16-3.6 2.77q-2.52-1.21-5.36-1.74l-1.28-4.36h-5.39l-1.29 4.36q-2.83 0.53-5.36 1.74l-3.6-2.77-4.36 3.16 1.53 4.29q-1.95 2.05-3.31 4.55l-4.55-0.12-1.66 5.12 3.76 2.58q-0.18 1.37-0.19 2.79 0.01 1.44 0.19 2.83l-3.76 2.57 1.66 5.13 4.56-0.13q1.37 2.49 3.31 4.53l-1.54 4.31 4.36 3.17 3.62-2.79q2.52 1.2 5.34 1.73l1.29 4.39h5.38l1.3-4.39q2.82-0.53 5.33-1.73l3.62 2.79 4.36-3.17-1.54-4.31q1.95-2.04 3.31-4.53l4.56 0.13 1.66-5.13-3.76-2.57q0.18-1.39 0.19-2.83z"/>
		<path fill-rule="evenodd" class="s0" d="m112.51 30.89c-1.74 7.36-9.09 11.9-16.46 10.17-7.36-1.74-11.9-9.1-10.17-16.46 1.74-7.36 9.1-11.91 16.46-10.17 7.36 1.74 11.91 9.09 10.17 16.46z"/>
	</g>
</svg>